<svg width="512" height="512" viewBox="0 0 512 512" fill="none" xmlns="http://www.w3.org/2000/svg">
<rect width="512" height="512" fill="url(#paint0_linear)"/>
<g filter="url(#filter0_d)">
<path d="M256 128C220.65 128 192 156.65 192 192C192 227.35 220.65 256 256 256C291.35 256 320 227.35 320 192C320 156.65 291.35 128 256 128Z" fill="white" fill-opacity="0.9"/>
<path d="M128 256C128 220.65 156.65 192 192 192C227.35 192 256 220.65 256 256C256 291.35 227.35 320 192 320C156.65 320 128 291.35 128 256Z" fill="white" fill-opacity="0.9"/>
<path d="M256 384C291.35 384 320 355.35 320 320C320 284.65 291.35 256 256 256C220.65 256 192 284.65 192 320C192 355.35 220.65 384 256 384Z" fill="white" fill-opacity="0.9"/>
<path d="M384 256C384 291.35 355.35 320 320 320C284.65 320 256 291.35 256 256C256 220.65 284.65 192 320 192C355.35 192 384 220.65 384 256Z" fill="white" fill-opacity="0.9"/>
<circle cx="256" cy="256" r="24" fill="#6C5CE7"/>
</g>
<defs>
<linearGradient id="paint0_linear" x1="0" y1="0" x2="512" y2="512" gradientUnits="userSpaceOnUse">
<stop stop-color="#6C5CE7"/>
<stop offset="1" stop-color="#FD79A8"/>
</linearGradient>
<filter id="filter0_d" x="118" y="118" width="276" height="276" filterUnits="userSpaceOnUse" color-interpolation-filters="sRGB">
<feFlood flood-opacity="0" result="BackgroundImageFix"/>
<feColorMatrix in="SourceAlpha" type="matrix" values="0 0 0 0 0 0 0 0 0 0 0 0 0 0 0 0 0 0 127 0" result="hardAlpha"/>
<feOffset dy="4"/>
<feGaussianBlur stdDeviation="8"/>
<feComposite in2="hardAlpha" operator="out"/>
<feColorMatrix type="matrix" values="0 0 0 0 0 0 0 0 0 0 0 0 0 0 0 0 0 0 0.15 0"/>
<feBlend mode="normal" in2="BackgroundImageFix" result="effect1_dropShadow"/>
<feBlend mode="normal" in="SourceGraphic" in2="effect1_dropShadow" result="shape"/>
</filter>
</defs>
</svg>
